<mxfile host="app.diagrams.net" agent="Mozilla/5.0 (Windows NT 10.0; Win64; x64) AppleWebKit/537.36 (KHTML, like Gecko) Chrome/138.0.0.0 Safari/537.36" version="27.1.6">
  <diagram name="Página-1" id="jci4QsL0_wLxANuexTLU">
    <mxGraphModel grid="1" page="1" gridSize="10" guides="1" tooltips="1" connect="1" arrows="1" fold="1" pageScale="1" pageWidth="827" pageHeight="1169" math="0" shadow="0">
      <root>
        <mxCell id="0" />
        <mxCell id="1" parent="0" />
        <mxCell id="IxMScBpadhmAz_A5qoVI-1" value="CU034 Cambio de documento" style="swimlane;childLayout=stackLayout;resizeParent=1;resizeParentMax=0;startSize=20;horizontal=0;horizontalStack=1;" vertex="1" parent="1">
          <mxGeometry x="250" y="60" width="810" height="830" as="geometry">
            <mxRectangle x="200" y="80" width="40" height="50" as="alternateBounds" />
          </mxGeometry>
        </mxCell>
        <mxCell id="IxMScBpadhmAz_A5qoVI-4" value="Administrador" style="swimlane;startSize=20;" vertex="1" parent="IxMScBpadhmAz_A5qoVI-1">
          <mxGeometry x="20" width="320" height="830" as="geometry" />
        </mxCell>
        <mxCell id="IxMScBpadhmAz_A5qoVI-94" style="edgeStyle=orthogonalEdgeStyle;rounded=0;orthogonalLoop=1;jettySize=auto;html=1;exitX=0.5;exitY=1;exitDx=0;exitDy=0;entryX=0.5;entryY=0;entryDx=0;entryDy=0;" edge="1" parent="IxMScBpadhmAz_A5qoVI-4" source="IxMScBpadhmAz_A5qoVI-5" target="IxMScBpadhmAz_A5qoVI-93">
          <mxGeometry relative="1" as="geometry" />
        </mxCell>
        <mxCell id="IxMScBpadhmAz_A5qoVI-5" value="" style="ellipse;html=1;shape=startState;fillColor=#000000;strokeColor=#ff0000;fillStyle=auto;" vertex="1" parent="IxMScBpadhmAz_A5qoVI-4">
          <mxGeometry x="180" y="30" width="30" height="30" as="geometry" />
        </mxCell>
        <mxCell id="IxMScBpadhmAz_A5qoVI-95" style="edgeStyle=orthogonalEdgeStyle;rounded=0;orthogonalLoop=1;jettySize=auto;html=1;exitX=1;exitY=0.75;exitDx=0;exitDy=0;" edge="1" parent="IxMScBpadhmAz_A5qoVI-4" source="IxMScBpadhmAz_A5qoVI-93">
          <mxGeometry relative="1" as="geometry">
            <mxPoint x="540" y="141" as="targetPoint" />
            <Array as="points">
              <mxPoint x="540" y="138" />
            </Array>
          </mxGeometry>
        </mxCell>
        <mxCell id="IxMScBpadhmAz_A5qoVI-93" value="&lt;font style=&quot;vertical-align: inherit;&quot;&gt;&lt;font style=&quot;vertical-align: inherit;&quot;&gt;&lt;font style=&quot;vertical-align: inherit;&quot;&gt;&lt;font style=&quot;vertical-align: inherit;&quot;&gt;Pulsar el apartado &quot;Perfil&quot;&amp;nbsp;&lt;/font&gt;&lt;/font&gt;&lt;/font&gt;&lt;/font&gt;" style="rounded=1;whiteSpace=wrap;html=1;arcSize=40;fontColor=#000000;fillColor=#ffffc0;strokeColor=#ff0000;" vertex="1" parent="IxMScBpadhmAz_A5qoVI-4">
          <mxGeometry x="135" y="100" width="120" height="50" as="geometry" />
        </mxCell>
        <mxCell id="Y6wh2UXnSfYGxNtZu5RI-1" value="&lt;font style=&quot;vertical-align: inherit;&quot;&gt;&lt;font style=&quot;vertical-align: inherit;&quot;&gt;&lt;font style=&quot;vertical-align: inherit;&quot;&gt;&lt;font style=&quot;vertical-align: inherit;&quot;&gt;Pulsar botón &quot;Cambio de Documento&quot;&amp;nbsp;&lt;/font&gt;&lt;/font&gt;&lt;/font&gt;&lt;/font&gt;" style="rounded=1;whiteSpace=wrap;html=1;arcSize=40;fontColor=#000000;fillColor=#ffffc0;strokeColor=#ff0000;" vertex="1" parent="IxMScBpadhmAz_A5qoVI-4">
          <mxGeometry x="144" y="210" width="120" height="50" as="geometry" />
        </mxCell>
        <mxCell id="IxMScBpadhmAz_A5qoVI-17" value="Sistema" style="swimlane;startSize=20;" vertex="1" parent="IxMScBpadhmAz_A5qoVI-1">
          <mxGeometry x="340" width="470" height="830" as="geometry" />
        </mxCell>
        <mxCell id="IxMScBpadhmAz_A5qoVI-96" value="Mostrar perfil" style="rounded=1;whiteSpace=wrap;html=1;arcSize=40;fontColor=#000000;fillColor=#ffffc0;strokeColor=#ff0000;" vertex="1" parent="IxMScBpadhmAz_A5qoVI-17">
          <mxGeometry x="221" y="110" width="120" height="50" as="geometry" />
        </mxCell>
        <mxCell id="IxMScBpadhmAz_A5qoVI-117" style="edgeStyle=orthogonalEdgeStyle;rounded=0;orthogonalLoop=1;jettySize=auto;html=1;exitX=0.5;exitY=1;exitDx=0;exitDy=0;entryX=0;entryY=0.5;entryDx=0;entryDy=0;" edge="1" parent="IxMScBpadhmAz_A5qoVI-17" source="IxMScBpadhmAz_A5qoVI-97" target="IxMScBpadhmAz_A5qoVI-102">
          <mxGeometry relative="1" as="geometry">
            <Array as="points">
              <mxPoint x="-126" y="410" />
              <mxPoint x="-150" y="410" />
              <mxPoint x="-150" y="455" />
            </Array>
          </mxGeometry>
        </mxCell>
        <mxCell id="IxMScBpadhmAz_A5qoVI-97" value="Diligenciar el documento" style="rounded=1;whiteSpace=wrap;html=1;arcSize=40;fontColor=#000000;fillColor=#ffffc0;strokeColor=#ff0000;" vertex="1" parent="IxMScBpadhmAz_A5qoVI-17">
          <mxGeometry x="-186" y="350" width="120" height="50" as="geometry" />
        </mxCell>
        <mxCell id="IxMScBpadhmAz_A5qoVI-102" value="Pulsar botón &quot;Guardar&quot;" style="rounded=1;whiteSpace=wrap;html=1;arcSize=40;fontColor=#000000;fillColor=#ffffc0;strokeColor=#ff0000;" vertex="1" parent="IxMScBpadhmAz_A5qoVI-17">
          <mxGeometry x="-130" y="430" width="120" height="50" as="geometry" />
        </mxCell>
        <mxCell id="IxMScBpadhmAz_A5qoVI-112" style="edgeStyle=orthogonalEdgeStyle;rounded=0;orthogonalLoop=1;jettySize=auto;html=1;exitX=0.5;exitY=0;exitDx=0;exitDy=0;entryX=0;entryY=0.75;entryDx=0;entryDy=0;" edge="1" parent="IxMScBpadhmAz_A5qoVI-17" source="IxMScBpadhmAz_A5qoVI-32" target="IxMScBpadhmAz_A5qoVI-97">
          <mxGeometry relative="1" as="geometry">
            <Array as="points">
              <mxPoint x="179" y="520" />
              <mxPoint x="-206" y="520" />
              <mxPoint x="-206" y="387" />
            </Array>
          </mxGeometry>
        </mxCell>
        <mxCell id="IxMScBpadhmAz_A5qoVI-115" value="no" style="edgeLabel;html=1;align=center;verticalAlign=middle;resizable=0;points=[];" vertex="1" connectable="0" parent="IxMScBpadhmAz_A5qoVI-112">
          <mxGeometry x="-0.2077" relative="1" as="geometry">
            <mxPoint x="192" y="-10" as="offset" />
          </mxGeometry>
        </mxCell>
        <mxCell id="IxMScBpadhmAz_A5qoVI-19" value="" style="ellipse;html=1;shape=endState;fillColor=#000000;strokeColor=#ff0000;" vertex="1" parent="IxMScBpadhmAz_A5qoVI-17">
          <mxGeometry x="237" y="790" width="30" height="30" as="geometry" />
        </mxCell>
        <mxCell id="IxMScBpadhmAz_A5qoVI-20" style="edgeStyle=orthogonalEdgeStyle;rounded=0;orthogonalLoop=1;jettySize=auto;html=1;exitX=0.5;exitY=1;exitDx=0;exitDy=0;" edge="1" parent="IxMScBpadhmAz_A5qoVI-17">
          <mxGeometry relative="1" as="geometry">
            <mxPoint x="86" y="510" as="sourcePoint" />
            <mxPoint x="86" y="510" as="targetPoint" />
          </mxGeometry>
        </mxCell>
        <mxCell id="IxMScBpadhmAz_A5qoVI-32" value="¿Los campos están llenos?" style="rhombus;whiteSpace=wrap;html=1;fontColor=#000000;fillColor=#ffffc0;strokeColor=#ff0000;" vertex="1" parent="IxMScBpadhmAz_A5qoVI-17">
          <mxGeometry x="267" y="520" width="116" height="86" as="geometry" />
        </mxCell>
        <mxCell id="IxMScBpadhmAz_A5qoVI-122" style="edgeStyle=orthogonalEdgeStyle;rounded=0;orthogonalLoop=1;jettySize=auto;html=1;exitX=0.5;exitY=1;exitDx=0;exitDy=0;entryX=0.5;entryY=0;entryDx=0;entryDy=0;" edge="1" parent="IxMScBpadhmAz_A5qoVI-17" source="IxMScBpadhmAz_A5qoVI-104" target="IxMScBpadhmAz_A5qoVI-19">
          <mxGeometry relative="1" as="geometry">
            <Array as="points">
              <mxPoint x="252" y="720" />
            </Array>
          </mxGeometry>
        </mxCell>
        <mxCell id="IxMScBpadhmAz_A5qoVI-104" value="Actualiza el documento" style="rounded=1;whiteSpace=wrap;html=1;arcSize=40;fontColor=#000000;fillColor=#ffffc0;strokeColor=#ff0000;" vertex="1" parent="IxMScBpadhmAz_A5qoVI-17">
          <mxGeometry x="190" y="670" width="120" height="50" as="geometry" />
        </mxCell>
        <mxCell id="IxMScBpadhmAz_A5qoVI-107" value="Muestra mensaje de error" style="rounded=1;whiteSpace=wrap;html=1;arcSize=40;fontColor=#000000;fillColor=#ffffc0;strokeColor=#ff0000;" vertex="1" parent="IxMScBpadhmAz_A5qoVI-17">
          <mxGeometry x="30" y="490" width="120" height="50" as="geometry" />
        </mxCell>
        <mxCell id="IxMScBpadhmAz_A5qoVI-106" value="si" style="text;html=1;align=center;verticalAlign=middle;resizable=0;points=[];autosize=1;strokeColor=none;fillColor=none;" vertex="1" parent="IxMScBpadhmAz_A5qoVI-17">
          <mxGeometry x="150" y="626" width="30" height="30" as="geometry" />
        </mxCell>
        <mxCell id="IxMScBpadhmAz_A5qoVI-105" style="edgeStyle=orthogonalEdgeStyle;rounded=0;orthogonalLoop=1;jettySize=auto;html=1;exitX=0.5;exitY=1;exitDx=0;exitDy=0;entryX=0;entryY=0.5;entryDx=0;entryDy=0;" edge="1" parent="IxMScBpadhmAz_A5qoVI-17" source="IxMScBpadhmAz_A5qoVI-32" target="IxMScBpadhmAz_A5qoVI-104">
          <mxGeometry relative="1" as="geometry" />
        </mxCell>
        <mxCell id="IxMScBpadhmAz_A5qoVI-120" style="edgeStyle=orthogonalEdgeStyle;rounded=0;orthogonalLoop=1;jettySize=auto;html=1;exitX=1;exitY=0.5;exitDx=0;exitDy=0;entryX=0.5;entryY=0;entryDx=0;entryDy=0;" edge="1" parent="IxMScBpadhmAz_A5qoVI-17" source="IxMScBpadhmAz_A5qoVI-102" target="IxMScBpadhmAz_A5qoVI-32">
          <mxGeometry relative="1" as="geometry">
            <mxPoint x="221" y="455" as="targetPoint" />
          </mxGeometry>
        </mxCell>
        <mxCell id="Y6wh2UXnSfYGxNtZu5RI-4" style="edgeStyle=orthogonalEdgeStyle;rounded=0;orthogonalLoop=1;jettySize=auto;html=1;entryX=1;entryY=0.5;entryDx=0;entryDy=0;" edge="1" parent="IxMScBpadhmAz_A5qoVI-17" source="Y6wh2UXnSfYGxNtZu5RI-2" target="IxMScBpadhmAz_A5qoVI-97">
          <mxGeometry relative="1" as="geometry">
            <Array as="points">
              <mxPoint x="270" y="375" />
            </Array>
          </mxGeometry>
        </mxCell>
        <mxCell id="Y6wh2UXnSfYGxNtZu5RI-2" value="Muestra formulario de documento" style="rounded=1;whiteSpace=wrap;html=1;arcSize=40;fontColor=#000000;fillColor=#ffffc0;strokeColor=#ff0000;" vertex="1" parent="IxMScBpadhmAz_A5qoVI-17">
          <mxGeometry x="210" y="300" width="120" height="50" as="geometry" />
        </mxCell>
        <mxCell id="IxMScBpadhmAz_A5qoVI-98" style="edgeStyle=orthogonalEdgeStyle;rounded=0;orthogonalLoop=1;jettySize=auto;html=1;exitX=0.5;exitY=1;exitDx=0;exitDy=0;entryX=1;entryY=0.5;entryDx=0;entryDy=0;" edge="1" parent="IxMScBpadhmAz_A5qoVI-1" source="IxMScBpadhmAz_A5qoVI-96" target="Y6wh2UXnSfYGxNtZu5RI-1">
          <mxGeometry relative="1" as="geometry" />
        </mxCell>
        <mxCell id="Y6wh2UXnSfYGxNtZu5RI-3" style="edgeStyle=orthogonalEdgeStyle;rounded=0;orthogonalLoop=1;jettySize=auto;html=1;entryX=0;entryY=0.5;entryDx=0;entryDy=0;" edge="1" parent="IxMScBpadhmAz_A5qoVI-1" source="Y6wh2UXnSfYGxNtZu5RI-1" target="Y6wh2UXnSfYGxNtZu5RI-2">
          <mxGeometry relative="1" as="geometry">
            <Array as="points">
              <mxPoint x="224" y="325" />
            </Array>
          </mxGeometry>
        </mxCell>
      </root>
    </mxGraphModel>
  </diagram>
</mxfile>
